<svg xmlns="http://www.w3.org/2000/svg" viewBox="0 0 260 318" preserveAspectRatio="xMaxYMid">
  <path fill="#FAF8F4" d="M19.118 80.769l127.736 21.316L128.637 0H59.555z"/>
  <path fill="#E8E5DF" d="M146.854 102.085L19.118 80.769 59.555 0h-3.354L17.93 76.44 11.764 0h-3.01l6.711 83.201 131.949 22.019 21.141 117.578 17.032 94.725L260 267.696v-3.305c-.287 0-.578.082-.835.254l-67.154 44.966 57.268-86.813L260 206.545v-4.223c-.487 0-.964.236-1.252.672l-13.063 19.803-58.214 88.247-15.867-88.247-20.784-115.592 108.325 75.035c.261.181.559.267.854.267H260v-3.325L152.574 104.77 260 86.273v-3.017c-.084 0-.169.003-.255.017l-102.63 17.671L260 43.607v-3.434L149.811 101.58 131.684 0h-3.047l18.217 102.085z"/>
</svg>
