<svg xmlns="http://www.w3.org/2000/svg" viewBox="0 0 327 673" preserveAspectRatio="xMaxYMid">
  <path fill="#FAF8F4" d="M187.6 480.4l-23.3 126.9L307 590.9l20-2.3v-27.5l-61.1-35.6-78.3-45.1z"/>
  <path fill="#E8E5DF" d="M168 609.9l159-18.2v-3l-20 2.3-142.6 16.3 23.3-126.9 78.3 45.2 61.1 35.6v-3.8L267.5 523l-78.6-45.8L327 237.7v-6L186.2 475.6 4.7 369.8l257.2-191.6 65.1 24.4v-3.2l-62.2-23.3 62.2-46.3V126l-20.9 15.6L327 18.3V.4l-24.4 143.8-41.4 30.8c-.2 0-.4.1-.6.3L1.9 368.2l-.8.6c-.2.2-.4.4-.5.7-.1.2-.1.4-.1.6v.5c0 .1.1.2.1.3.1.1.1.2.2.3.1.1.2.1.3.2l183.6 107.5-23.8 130v.6c0 .1.1.2.1.3v.1c.1.1.1.2.2.3l.1.1c.1.1.2.2.3.2l137 62.5h7.2L168 609.9z"/>
</svg>
