<svg xmlns="http://www.w3.org/2000/svg" viewBox="0 0 18 18">
  <title>Instagram</title>
  <path d="M8.878 4.707a4.033 4.033 0 0 1 4.04 4.026v.014a4.033 4.033 0 0 1-4.027 4.039h-.013a4.033 4.033 0 0 1-4.039-4.027v-.013a4.033 4.033 0 0 1 4.027-4.039h.012zm0 6.666a2.63 2.63 0 0 0 2.627-2.626A2.63 2.63 0 0 0 8.878 6.12a2.63 2.63 0 0 0-2.626 2.627 2.63 2.63 0 0 0 2.626 2.626zm5.147-6.831a.94.94 0 0 1-.938.942h-.004a.942.942 0 1 1 .942-.942zm2.676.956c.074 1.3.074 5.196 0 6.497-.064 1.262-.352 2.38-1.273 3.301-.921.925-2.039 1.213-3.301 1.273-1.3.074-5.2.074-6.5 0-1.263-.064-2.377-.352-3.302-1.273-.924-.921-1.212-2.039-1.272-3.301-.074-1.3-.074-5.2 0-6.5.063-1.263.348-2.38 1.272-3.302C3.25 1.273 4.368.984 5.627.924c1.3-.074 5.2-.074 6.5 0 1.262.064 2.38.352 3.301 1.273.925.921 1.213 2.039 1.273 3.301zm-1.68 7.893c.41-1.034.316-3.498.316-4.644 0-1.147.095-3.608-.317-4.645a2.656 2.656 0 0 0-1.497-1.497c-1.034-.408-3.498-.317-4.645-.317-1.146 0-3.607-.095-4.644.317a2.656 2.656 0 0 0-1.497 1.497C2.329 5.136 2.42 7.6 2.42 8.747c0 1.146-.095 3.607.317 4.644.27.685.812 1.227 1.497 1.497 1.034.408 3.498.317 4.644.317 1.147 0 3.608.095 4.645-.317a2.66 2.66 0 0 0 1.498-1.497z" />
</svg>
