<svg xmlns="http://www.w3.org/2000/svg" viewBox="0 0 18 18">
  <title>Website Link</title>
  <path d="M11.047 7.203a4.929 4.929 0 0 1 .343 6.58c-.219.272-.098.136-2.986 3.024a4.919 4.919 0 0 1-6.961 0 4.92 4.92 0 0 1 0-6.961l2.229-2.231c.262-.262.715-.083.72.288.005.372.08.968.167 1.33a.42.42 0 0 1-.113.394l-1.612 1.612a2.953 2.953 0 1 0 4.177 4.177l2.643-2.644a2.957 2.957 0 0 0 0-4.176 3.5 3.5 0 0 0-.802-.57.424.424 0 0 1-.231-.434c.048-.391.221-.769.521-1.069l.154-.154a.419.419 0 0 1 .484-.081c.457.229.886.534 1.267.915zm5.51-5.51a4.92 4.92 0 0 1 0 6.961l-2.229 2.231c-.262.262-.715.083-.72-.288a7.266 7.266 0 0 0-.167-1.33.42.42 0 0 1 .113-.394l1.612-1.612a2.953 2.953 0 1 0-4.177-4.177L8.346 5.728a2.957 2.957 0 0 0 0 4.176c.195.195.554.451.802.571a.423.423 0 0 1 .231.434 1.819 1.819 0 0 1-.521 1.069l-.154.154a.422.422 0 0 1-.484.081 4.929 4.929 0 0 1-1.609-7.496c.219-.272.098-.136 2.986-3.024a4.918 4.918 0 0 1 6.96 0z" />
</svg>
