<svg xmlns="http://www.w3.org/2000/svg" viewBox="0 0 18 18">
  <title>Twitter</title>
  <path d="M16.15 5.584c.011.16.011.32.011.48 0 4.876-3.712 10.496-10.496 10.496A10.43 10.43 0 0 1 0 14.904c.297.034.582.045.89.045a7.39 7.39 0 0 0 4.58-1.576 3.696 3.696 0 0 1-3.448-2.558c.228.034.456.057.696.057.328-.001.654-.043.971-.126a3.69 3.69 0 0 1-2.958-3.62V7.08a3.722 3.722 0 0 0 1.667.468A3.686 3.686 0 0 1 .754 4.476c0-.685.182-1.314.502-1.862a10.486 10.486 0 0 0 7.607 3.86 4.213 4.213 0 0 1-.092-.845 3.687 3.687 0 0 1 3.685-3.689h.005a3.683 3.683 0 0 1 2.695 1.165 7.266 7.266 0 0 0 2.341-.89 3.68 3.68 0 0 1-1.621 2.033A7.42 7.42 0 0 0 18 3.676a7.908 7.908 0 0 1-1.85 1.908z" />
</svg>
